<svg xmlns="http://www.w3.org/2000/svg" width="600" height="400" viewBox="0 0 600 400">
  <!-- Background -->
  <rect width="600" height="400" fill="#f8fafc"/>
  
  <!-- Abstract shapes -->
  <circle cx="500" cy="100" r="150" fill="#2563eb" opacity="0.1"/>
  <circle cx="100" cy="300" r="120" fill="#0ea5e9" opacity="0.1"/>
  
  <!-- Briefcase -->
  <g transform="translate(250,150) scale(2)">
    <rect x="2" y="7" width="20" height="14" rx="2" fill="#2563eb"/>
    <path d="M16 21V5a2 2 0 0 0-2-2h-4a2 2 0 0 0-2 2v16" fill="#3b82f6"/>
  </g>
  
  <!-- Search Elements -->
  <circle cx="380" cy="180" r="30" stroke="#0284c7" stroke-width="4" fill="none"/>
  <line x1="400" y1="200" x2="420" y2="220" stroke="#0284c7" stroke-width="4" stroke-linecap="round"/>
  
  <!-- Document Icons -->
  <g transform="translate(180,160)">
    <rect width="30" height="40" rx="2" fill="#3b82f6" opacity="0.8"/>
    <line x1="5" y1="10" x2="25" y2="10" stroke="white" stroke-width="2"/>
    <line x1="5" y1="20" x2="20" y2="20" stroke="white" stroke-width="2"/>
  </g>
  
  <g transform="translate(390,140)">
    <rect width="30" height="40" rx="2" fill="#3b82f6" opacity="0.8"/>
    <line x1="5" y1="10" x2="25" y2="10" stroke="white" stroke-width="2"/>
    <line x1="5" y1="20" x2="20" y2="20" stroke="white" stroke-width="2"/>
  </g>
</svg> 